# xmcd
#
# Track frame offsets:
#	150
#	15650
#	33724
#	50618
#	67532
#	82491
#	100921
#	120874
#	147678
#	164396
#	184169
#	200924
#
# Disc length: 2972 seconds
#
# Revision: 1
# Processed by: cddbd v1.5.2PL0 Copyright (c) Steve Scherf et al.
# Submitted via: audiograbber 1.83.01
#
DISCID=ad0b9a0c
DTITLE=Various Artist - Street Beats V04 S06 CD1
DYEAR=1900
DGENRE=R&B
TTITLE0=Ms Dynamite - Put Him Out
TTITLE1=2 Pac - Thugs Mansion
TTITLE2=Erick Sermon Ft Redman - React
TTITLE3=K-Ci and Jojo - It's Me
TTITLE4=Gangstarr - Skills
TTITLE5=Beenie Man Ft Lady Saw and Sean Paul - Bossman
TTITLE6=Brian McKnight Ft Mr Cheeks and Baby - The Way I Do
TTITLE7=Dj Jazzy Jeff Ft Erro - Rock Wit U (Yoruba Soul Mix)
TTITLE8=Jennifer Phillips - All About Me
TTITLE9=Jaye Lewis - Real Love (Roc Mix)
TTITLE10=King Britt Ft Capitol A - Next Plateau
TTITLE11=Culture and Anthony B - Two Sevens Clash
EXTD=
EXTT0=
EXTT1=
EXTT2=
EXTT3=
EXTT4=
EXTT5=
EXTT6=
EXTT7=
EXTT8=
EXTT9=
EXTT10=
EXTT11=
PLAYORDER=
